<svg xmlns="http://www.w3.org/2000/svg" width="90.333" height="26.242"><g id="Artwork_19" data-name="Artwork 19" transform="translate(94.131 27.346)"><g id="Group_3400" data-name="Group 3400" transform="translate(-94.131 -27.346)"><path id="Path_3946" data-name="Path 3946" d="M81.827 30.362v8.176h-5.285v-7.915c0-1.9-.522-2.464-1.991-2.464h-.971v10.38h-7.37V34.7h2.322v-6.542h-1.493v-3.839h8.531c4.622 0 6.257 1.681 6.257 6.043zm2.563 8.176V24.319h5.284v14.219zm7.463 0V34.7h1.28c.972 0 1.209-.4 1.209-1.564v-4.978h-1.588v-3.839h6.872v9.669c0 3.531-.924 4.55-4.147 4.55zm15.354-7.465c0-2.109-.522-2.915-2.2-2.915h-3.531v-3.839h5.071c4.5 0 5.948 1.9 5.948 6.257v7.962h-5.284zm7.756 7.465h-.687v-4.052h.687c3.1 0 3.768-1.043 3.294-3.839l-.4-2.488h-2.535v-3.84h6.92l2.535 14.219h-4.905l-.593-2.962h-.142c-.548 1.824-1.591 2.962-4.174 2.962z" transform="translate(-34.44 -12.65)" fill="#3e0000"/><path id="Path_3947" data-name="Path 3947" d="M120.708 6.4V2.878h1.624V6.4zm7.4 2.416l-2.01-3.08c-.277.1-.367.327-.367.742V8.82h-1.6V6.493a1.628 1.628 0 011.3-1.783l-1.2-1.832h1.644l1.8 2.753c.287-.1.406-.317.406-.733v-2.02h1.619v2.09a1.679 1.679 0 01-1.32 1.732l1.387 2.119zm5.842-4.694h-2.694V1.888h1.545v.99h3.229l-2.015 5.942h-1.7zm8.917 2.169c0 1.842-.763 2.525-2.357 2.525h-.524V7.573h.267c.594 0 1-.188 1-1.258V4.126H137.6V2.878h5.269zm-3.625-.871v4.882h-1.624V5.423zm10.991-.02v3.42h-1.614v-3.4c0-1-.238-1.3-.98-1.3h-1.09v4.7h-1.624V2.878h3.179c1.511 0 2.135.634 2.135 2.522z" transform="translate(-62.789 -.982)" fill="#3e0000"/><path id="Path_3948" data-name="Path 3948" d="M28.023 30.846a4.609 4.609 0 001.192.5l.042.011a4.984 4.984 0 004.308-.773l.023-.017a4.789 4.789 0 001.741-3.034 31.357 31.357 0 00.271-3.693v-.033c.027-.74.113-1.465.2-2.166a20.222 20.222 0 00.189-2.3 2.013 2.013 0 00-.726-1.652l-.023-.016a2 2 0 00-2-.279 12.413 12.413 0 00-2.608 2.327c-.193.207-.386.413-.582.617l-.042.042q-.383.361-.774.714a8.746 8.746 0 01-1.213 9.752m2.594 3.108a7.3 7.3 0 01-2.008-.279 8.516 8.516 0 01-2.922-1.5l-.076-.061c-.1-.09-.2-.185-.3-.282l-.97-.948 1.076-.827a6.444 6.444 0 002.438-4.991 6.348 6.348 0 00-1.15-3.532l-.578-.856.761-.7.527-.481c.308-.28.616-.559.918-.845.18-.189.359-.381.539-.572a14.291 14.291 0 013.173-2.774l.04-.022a3.969 3.969 0 011.87-.459 4.582 4.582 0 012.727.92 4.356 4.356 0 011.72 3.616 22.417 22.417 0 01-.206 2.563c-.08.677-.156 1.316-.18 1.952a33.95 33.95 0 01-.3 3.99l-.009.057a7.078 7.078 0 01-2.7 4.585 7.332 7.332 0 01-4.395 1.444" transform="translate(-12.661 -7.712)" fill="#afca0b"/><path id="Path_3949" data-name="Path 3949" d="M8.784 20.335a6.359 6.359 0 100 12.717 6.3 6.3 0 002.959-.727 7.037 7.037 0 01-1.166-5.35 7.48 7.48 0 012.023-3.736c.275-.307.563-.6.847-.88a6.373 6.373 0 00-4.663-2.024m0 15.123a8.764 8.764 0 117.291-13.652l.5.9-.685.653c-.5.457-1.025.955-1.506 1.493l-.025.027a5.147 5.147 0 00-1.419 2.56 4.847 4.847 0 001.431 4.289l.99.728-1.081 1.069a8.818 8.818 0 01-5.5 1.933" transform="translate(0 -9.326)" fill="#f18700"/><path id="Path_3950" data-name="Path 3950" d="M26.07 27.485q-.187.194-.367.394l-.025.028a5.152 5.152 0 00-1.418 2.561 4.659 4.659 0 00.693 3.371 6.35 6.35 0 001.118-6.353m-1.291 9.659l-.78-.678A7.2 7.2 0 0121.895 30a7.483 7.483 0 012.023-3.736 24.334 24.334 0 011.658-1.646l.951-.874a10.378 10.378 0 01.866 1.087A8.745 8.745 0 0125.6 36.55z" transform="translate(-11.322 -12.351)" fill="#46962b"/><path id="Path_3951" data-name="Path 3951" d="M32.458 2.6a5.85 5.85 0 014.6-2.6 5.826 5.826 0 01-.925 5.2 5.849 5.849 0 01-4.6 2.6 5.823 5.823 0 01.925-5.2" transform="translate(-16.264)" fill="#46962b"/><path id="Path_3952" data-name="Path 3952" d="M20.65 7.265a4.762 4.762 0 00-4.208-.9 4.742 4.742 0 001.991 3.806 4.764 4.764 0 004.209.9 4.742 4.742 0 00-1.992-3.806" transform="translate(-8.552 -3.222)" fill="#afca0b"/></g></g></svg>