<svg xmlns="http://www.w3.org/2000/svg" width="90.333" height="26.242" viewBox="0 0 90.333 26.242">
  <g id="Artwork_19" data-name="Artwork 19" transform="translate(94.131 27.346)">
    <g id="Group_3400" data-name="Group 3400" transform="translate(-94.131 -27.346)">
      <path id="Path_3946" data-name="Path 3946" d="M81.827,30.362v8.176H76.542V30.623c0-1.9-.522-2.464-1.991-2.464H73.58v10.38H66.21V34.7h2.322V28.158H67.039V24.319h8.531C80.192,24.319,81.827,26,81.827,30.362Zm2.563,8.176V24.319h5.284V38.538Zm7.463,0V34.7h1.28c.972,0,1.209-.4,1.209-1.564V28.158H92.754V24.319h6.872v9.669c0,3.531-.924,4.55-4.147,4.55Zm15.354-7.465c0-2.109-.522-2.915-2.2-2.915h-3.531V24.319h5.071c4.5,0,5.948,1.9,5.948,6.257v7.962h-5.284Zm7.756,7.465h-.687V34.486h.687c3.1,0,3.768-1.043,3.294-3.839l-.4-2.488h-2.535V24.319h6.92l2.535,14.219h-4.905l-.593-2.962h-.142C118.589,37.4,117.546,38.538,114.963,38.538Z" transform="translate(-34.44 -12.65)" fill="#3e0000"/>
      <path id="Path_3947" data-name="Path 3947" d="M120.708,6.4V2.878h1.624V6.4Zm7.4,2.416-2.01-3.08c-.277.1-.367.327-.367.742V8.82h-1.6V6.493a1.628,1.628,0,0,1,1.3-1.783l-1.2-1.832h1.644l1.8,2.753c.287-.1.406-.317.406-.733V2.878H129.7v2.09A1.679,1.679,0,0,1,128.38,6.7l1.387,2.119Zm5.842-4.694h-2.694V1.888h1.545v.99h3.229L134.015,8.82h-1.7Zm8.917,2.169c0,1.842-.763,2.525-2.357,2.525h-.524V7.573h.267c.594,0,1-.188,1-1.258V4.126H137.6V2.878h5.269Zm-3.625-.871v4.882h-1.624V5.423Zm10.991-.02V8.82h-1.614v-3.4c0-1-.238-1.3-.98-1.3h-1.09V8.82h-1.624V2.878h3.179C149.615,2.878,150.239,3.512,150.239,5.4Z" transform="translate(-62.789 -0.982)" fill="#3e0000"/>
      <path id="Path_3948" data-name="Path 3948" d="M28.023,30.846a4.609,4.609,0,0,0,1.192.5l.042.011a4.984,4.984,0,0,0,4.308-.773l.023-.017a4.789,4.789,0,0,0,1.741-3.034A31.357,31.357,0,0,0,35.6,23.84v-.033c.027-.74.113-1.465.2-2.166a20.222,20.222,0,0,0,.189-2.3,2.013,2.013,0,0,0-.726-1.652l-.023-.016a2,2,0,0,0-2-.279,12.413,12.413,0,0,0-2.608,2.327c-.193.207-.386.413-.582.617l-.042.042q-.383.361-.774.714a8.746,8.746,0,0,1-1.213,9.752m2.594,3.108h0a7.3,7.3,0,0,1-2.008-.279,8.516,8.516,0,0,1-2.922-1.5l-.076-.061c-.1-.09-.2-.185-.3-.282l-.97-.948,1.076-.827a6.444,6.444,0,0,0,2.438-4.991,6.348,6.348,0,0,0-1.15-3.532l-.578-.856.761-.7q.263-.241.527-.481c.308-.28.616-.559.918-.845.18-.189.359-.381.539-.572a14.291,14.291,0,0,1,3.173-2.774l.04-.022a3.969,3.969,0,0,1,1.87-.459,4.582,4.582,0,0,1,2.727.92,4.356,4.356,0,0,1,1.72,3.616,22.417,22.417,0,0,1-.206,2.563c-.08.677-.156,1.316-.18,1.952a33.95,33.95,0,0,1-.3,3.99l-.009.057a7.078,7.078,0,0,1-2.7,4.585,7.332,7.332,0,0,1-4.395,1.444" transform="translate(-12.661 -7.712)" fill="#afca0b"/>
      <path id="Path_3949" data-name="Path 3949" d="M8.784,20.335a6.359,6.359,0,1,0,0,12.717,6.3,6.3,0,0,0,2.959-.727,7.037,7.037,0,0,1-1.166-5.35A7.48,7.48,0,0,1,12.6,23.239c.275-.307.563-.6.847-.88a6.373,6.373,0,0,0-4.663-2.024m0,15.123a8.764,8.764,0,1,1,7.291-13.652l.5.9-.685.653c-.5.457-1.025.955-1.506,1.493l-.025.027a5.147,5.147,0,0,0-1.419,2.56,4.847,4.847,0,0,0,1.431,4.289l.99.728L14.28,33.525a8.818,8.818,0,0,1-5.5,1.933" transform="translate(0 -9.326)" fill="#f18700"/>
      <path id="Path_3950" data-name="Path 3950" d="M26.07,27.485q-.187.194-.367.394l-.025.028a5.152,5.152,0,0,0-1.418,2.561,4.659,4.659,0,0,0,.693,3.371,6.35,6.35,0,0,0,1.118-6.353m-1.291,9.659L24,36.467A7.2,7.2,0,0,1,21.895,30a7.483,7.483,0,0,1,2.023-3.736c.548-.611,1.145-1.175,1.658-1.646l.951-.874a10.378,10.378,0,0,1,.866,1.087A8.745,8.745,0,0,1,25.6,36.55Z" transform="translate(-11.322 -12.351)" fill="#46962b"/>
      <path id="Path_3951" data-name="Path 3951" d="M32.458,2.6a5.85,5.85,0,0,1,4.6-2.6,5.826,5.826,0,0,1-.925,5.2,5.849,5.849,0,0,1-4.6,2.6,5.823,5.823,0,0,1,.925-5.2" transform="translate(-16.264)" fill="#46962b"/>
      <path id="Path_3952" data-name="Path 3952" d="M20.65,7.265a4.762,4.762,0,0,0-4.208-.9,4.742,4.742,0,0,0,1.991,3.806,4.764,4.764,0,0,0,4.209.9A4.742,4.742,0,0,0,20.65,7.265" transform="translate(-8.552 -3.222)" fill="#afca0b"/>
    </g>
  </g>
</svg>
