<svg xmlns="http://www.w3.org/2000/svg" width="17.106" height="12" viewBox="0 0 17.106 12">
    <path id="Path_3956" data-name="Path 3956"
          d="M16.937,5.482,10.988.132a.511.511,0,0,0-.852.38V2.464c-3.566.6-7.074,2.476-8.914,5.668A10.552,10.552,0,0,0,.011,11.391a.51.51,0,0,0,.906.407A8.385,8.385,0,0,1,3.792,9.35a8.28,8.28,0,0,1,6.344-.265v2.127a.511.511,0,0,0,.852.38l5.949-5.35a.511.511,0,0,0,0-.759m-6.171,3.9h0l-.023,0,.005-.032.009.007c.009.008.019.012.019.024s0,0-.006,0"
          transform="translate(0 0)" fill="#DF1883"/>
</svg>
